<svg width="15" height="14" viewBox="0 0 15 14" fill="none" xmlns="http://www.w3.org/2000/svg">
<path fill-rule="evenodd" clip-rule="evenodd" d="M6.69533 0.487005L4.86449 4.10687L0.768236 4.68922C0.0336581 4.79311 -0.260734 5.67621 0.271975 6.182L3.23552 8.99806L2.53459 12.9761C2.40842 13.6951 3.18505 14.2337 3.83552 13.8975L7.5 12.0192L11.1645 13.8975C11.8149 14.231 12.5916 13.6951 12.4654 12.9761L11.7645 8.99806L14.728 6.182C15.2607 5.67621 14.9663 4.79311 14.2318 4.68922L10.1355 4.10687L8.30467 0.487005C7.97663 -0.158228 7.02617 -0.16643 6.69533 0.487005Z" fill="#BBB7BA"/>
<mask id="mask0" mask-type="alpha" maskUnits="userSpaceOnUse" x="0" y="0" width="15" height="14">
<path fill-rule="evenodd" clip-rule="evenodd" d="M6.69533 0.487005L4.86449 4.10687L0.768236 4.68922C0.0336581 4.79311 -0.260734 5.67621 0.271975 6.182L3.23552 8.99806L2.53459 12.9761C2.40842 13.6951 3.18505 14.2337 3.83552 13.8975L7.5 12.0192L11.1645 13.8975C11.8149 14.231 12.5916 13.6951 12.4654 12.9761L11.7645 8.99806L14.728 6.182C15.2607 5.67621 14.9663 4.79311 14.2318 4.68922L10.1355 4.10687L8.30467 0.487005C7.97663 -0.158228 7.02617 -0.16643 6.69533 0.487005Z" fill="white"/>
</mask>
<g mask="url(#mask0)">
</g>
<path fill-rule="evenodd" clip-rule="evenodd" d="M8 0C7.65907 0 7.31813 0.16135 7.14168 0.486785L5.18879 4.10759L0.819452 4.68736C0.035902 4.79128 -0.278116 5.67461 0.290107 6.18053L3.45122 8.99733L2.70356 12.9764C2.56898 13.6902 3.39141 14.2344 4.09122 13.898L8 12.022V0Z" fill="#FFC50D"/>
<mask id="mask1" mask-type="alpha" maskUnits="userSpaceOnUse" x="0" y="0" width="8" height="14">
<path fill-rule="evenodd" clip-rule="evenodd" d="M8 0C7.65907 0 7.31813 0.16135 7.14168 0.486785L5.18879 4.10759L0.819452 4.68736C0.035902 4.79128 -0.278116 5.67461 0.290107 6.18053L3.45122 8.99733L2.70356 12.9764C2.56898 13.6902 3.39141 14.2344 4.09122 13.898L8 12.022V0Z" fill="white"/>
</mask>
<g mask="url(#mask1)">
</g>
</svg>
